<svg width="1332" height="298" viewBox="0 0 1332 298" fill="none" xmlns="http://www.w3.org/2000/svg">
<path fill-rule="evenodd" clip-rule="evenodd" d="M26.1049 135.808C68.2422 90.5304 130.906 114.651 150 134.151V113.651H194V293.151H150.5V271.151C58.9 333.151 5 264 1 222.151V218.767M146 206.152C146 181.651 132.5 152.151 98 152.151C68.5 152.151 48 177.151 48 207.652C48 228.651 69 253.651 98 253.651C131.5 253.651 146 219.651 146 206.152Z" fill="#FFFFFF"/>
<path fill-rule="evenodd" clip-rule="evenodd" d="M1 222.151C5 264 58.9 333.151 150.5 271.151V293.151H194V113.651H150V134.151C130.906 114.651 68.2422 90.5304 26.1049 135.808C23.746 138.343 21.4514 141.095 19.2324 144.078C3.5864 165.108 1 192.555 1 218.767V222.151ZM98 152.151C132.5 152.151 146 181.651 146 206.152C146 219.651 131.5 253.651 98 253.651C69 253.651 48 228.651 48 207.652C48 177.151 68.5 152.151 98 152.151Z" fill="#FFFFFF"/>
<path d="M1 218.767V222.151C5 264 58.9 333.151 150.5 271.151V293.151H194V113.651H150V134.151C130.906 114.651 68.2422 90.5304 26.1049 135.808C23.746 138.343 21.4514 141.095 19.2324 144.078M1 218.767C1 192.555 3.5864 165.108 19.2324 144.078M1 218.767V218.767C1 192.555 3.5864 165.108 19.2324 144.078V144.078M146 206.152C146 181.651 132.5 152.151 98 152.151C68.5 152.151 48 177.151 48 207.652C48 228.651 69 253.651 98 253.651C131.5 253.651 146 219.651 146 206.152Z" stroke="white"/>
<path d="M213.5 43H125.5L97 79H194L213.5 43Z" fill="#FFFFFF"/>
<path d="M314 1L264 14.5L266.5 114H234V154.5H266.5V249.5C277.3 307.5 340.333 298.667 370.5 287L355.5 249.5C325.9 263.9 315 246.667 314 236V154.5H360.5V114H314V1Z" fill="#FFFFFF" stroke="white"/>
<path fill-rule="evenodd" clip-rule="evenodd" d="M592 220H456.5C460.667 243.333 486.3 279.9 555.5 239.5L583.5 268C558 296 441 329.5 407 229V182.5C412 141.5 456.5 111.5 496 111.5C538 111.5 579 126.5 592 182.5V220ZM546.5 189H456.5C456.5 178.5 464.5 151 500.5 151C535.927 151 545.833 175.167 546.5 189Z" fill="#FFFFFF" stroke="white"/>
<path fill-rule="evenodd" clip-rule="evenodd" d="M1163.1 135.808C1205.24 90.5304 1267.91 114.651 1287 134.151V113.651H1331V293.151H1287.5V271.151C1195.9 333.151 1142 264 1138 222.151V218.767M1283 206.152C1283 181.651 1269.5 152.151 1235 152.151C1205.5 152.151 1185 177.151 1185 207.652C1185 228.651 1206 253.651 1235 253.651C1268.5 253.651 1283 219.651 1283 206.152Z" fill="#FFFFFF"/>
<path fill-rule="evenodd" clip-rule="evenodd" d="M1138 222.151C1142 264 1195.9 333.151 1287.5 271.151V293.151H1331V113.651H1287V134.151C1267.91 114.651 1205.24 90.5304 1163.1 135.808C1160.75 138.343 1158.45 141.095 1156.23 144.078C1140.59 165.108 1138 192.555 1138 218.767V222.151ZM1235 152.151C1269.5 152.151 1283 181.651 1283 206.152C1283 219.651 1268.5 253.651 1235 253.651C1206 253.651 1185 228.651 1185 207.652C1185 177.151 1205.5 152.151 1235 152.151Z" fill="#FFFFFF"/>
<path d="M1138 218.767V222.151C1142 264 1195.9 333.151 1287.5 271.151V293.151H1331V113.651H1287V134.151C1267.91 114.651 1205.24 90.5304 1163.1 135.808C1160.75 138.343 1158.45 141.095 1156.23 144.078M1138 218.767C1138 192.555 1140.59 165.108 1156.23 144.078M1138 218.767V218.767C1138 192.555 1140.59 165.108 1156.23 144.078V144.078M1283 206.152C1283 181.651 1269.5 152.151 1235 152.151C1205.5 152.151 1185 177.151 1185 207.652C1185 228.651 1206 253.651 1235 253.651C1268.5 253.651 1283 219.651 1283 206.152Z" stroke="white"/>
<path fill-rule="evenodd" clip-rule="evenodd" d="M643.105 136.808C685.242 91.5304 747.906 115.651 767 135.151V114.651H811V294.151H767.5V272.151C675.9 334.151 622 265 618 223.151V219.767M763 207.152C763 182.651 749.5 153.151 715 153.151C685.5 153.151 665 178.151 665 208.652C665 229.651 686 254.651 715 254.651C748.5 254.651 763 220.651 763 207.152Z" fill="#FFFFFF"/>
<path fill-rule="evenodd" clip-rule="evenodd" d="M618 223.151C622 265 675.9 334.151 767.5 272.151V294.151H811V114.651H767V135.151C747.906 115.651 685.242 91.5304 643.105 136.808C640.746 139.343 638.451 142.095 636.232 145.078C620.586 166.108 618 193.555 618 219.767V223.151ZM715 153.151C749.5 153.151 763 182.651 763 207.152C763 220.651 748.5 254.651 715 254.651C686 254.651 665 229.651 665 208.652C665 178.151 685.5 153.151 715 153.151Z" fill="#FFFFFF"/>
<path d="M618 219.767V223.151C622 265 675.9 334.151 767.5 272.151V294.151H811V114.651H767V135.151C747.906 115.651 685.242 91.5304 643.105 136.808C640.746 139.343 638.451 142.095 636.232 145.078M618 219.767C618 193.555 620.586 166.108 636.232 145.078M618 219.767V219.767C618 193.555 620.586 166.108 636.232 145.078V145.078M763 207.152C763 182.651 749.5 153.151 715 153.151C685.5 153.151 665 178.151 665 208.652C665 229.651 686 254.651 715 254.651C748.5 254.651 763 220.651 763 207.152Z" stroke="white"/>
<path d="M970.5 116H928.5V293.5H979.5V183.5C986.5 161 1003.73 152.311 1021 152.5C1038.27 152.689 1055 167.5 1057.5 183.5V293.5H1106V174C1086 87.5 1000.5 105 970.5 136.5V116Z" fill="#FFFFFF" stroke="white"/>
<path d="M835 66.5C834.129 49.9544 848.434 36.2192 865 36.5C881.292 36.7762 894.857 50.2279 894 66.5C893.186 81.9524 880.472 93.2388 865 93.5C849.24 93.7661 835.828 82.2401 835 66.5Z" fill="#FFFFFF"/>
<path d="M840 116H888.5V293H840V116Z" fill="#FFFFFF"/>
<path d="M835 66.5C834.129 49.9544 848.434 36.2192 865 36.5C881.292 36.7762 894.857 50.2279 894 66.5C893.186 81.9524 880.472 93.2388 865 93.5C849.24 93.7661 835.828 82.2401 835 66.5Z" stroke="white"/>
<path d="M840 116H888.5V293H840V116Z" stroke="white"/>
</svg>
