<svg width="214" height="254" viewBox="0 0 214 254" fill="none" xmlns="http://www.w3.org/2000/svg">
<path fill-rule="evenodd" clip-rule="evenodd" d="M26.1049 92.8082C68.2422 47.5304 130.906 71.6514 150 91.1514V70.6514H194V250.151H150.5V228.151C58.9 290.151 5 221 1 179.151V175.767M146 163.152C146 138.651 132.5 109.151 98 109.151C68.5 109.151 48 134.151 48 164.652C48 185.651 69 210.651 98 210.651C131.5 210.651 146 176.651 146 163.152Z" fill="#FFFFFF"/>
<path fill-rule="evenodd" clip-rule="evenodd" d="M1 179.151C5 221 58.9 290.151 150.5 228.151V250.151H194V70.6514H150V91.1514C130.906 71.6514 68.2422 47.5304 26.1049 92.8082C23.746 95.3429 21.4514 98.0951 19.2324 101.078C3.5864 122.108 1 149.555 1 175.767V179.151ZM98 109.151C132.5 109.151 146 138.651 146 163.152C146 176.651 131.5 210.651 98 210.651C69 210.651 48 185.651 48 164.652C48 134.151 68.5 109.151 98 109.151Z" fill="#FFFFFF"/>
<path d="M1 175.767V179.151C5 221 58.9 290.151 150.5 228.151V250.151H194V70.6514H150V91.1514C130.906 71.6514 68.2422 47.5304 26.1049 92.8082C23.746 95.3429 21.4514 98.0951 19.2324 101.078M1 175.767C1 149.555 3.5864 122.108 19.2324 101.078M1 175.767V175.767C1 149.555 3.5864 122.108 19.2324 101.078V101.078M146 163.152C146 138.651 132.5 109.151 98 109.151C68.5 109.151 48 134.151 48 164.652C48 185.651 69 210.651 98 210.651C131.5 210.651 146 176.651 146 163.152Z" stroke="white"/>
<path d="M213.5 0H125.5L97 36H194L213.5 0Z" fill="#FFFFFF"/>
</svg>
